<svg xmlns="http://www.w3.org/2000/svg" id="Layer_1" data-name="Layer 1" viewBox="0 -0.04 287.9 108.04"><defs><style>.cls-1{fill:#0173cf;}</style></defs><title>Aha_Blue</title><path class="cls-1" d="M42,86.3,36.77,109a1.45,1.45,0,0,1-1.41,1.12L11.21,110a1.43,1.43,0,0,1-1.36-1.89L41.68,10.86a3.47,3.47,0,0,1,2.8-2.25c7.05-1.28,18.19-3,26.06-4.45A2.44,2.44,0,0,1,73,5.49l31.58,103.29a1.13,1.13,0,0,1-1.07,1.44l-14.09-.13c-3.73,0-11,.24-13.88.33a1.43,1.43,0,0,1-1.45-1.13L69,86.3ZM64.28,66.37c-2-8.18-5.17-22.62-8-35.14-2,8.68-6.85,26.64-9.14,35.14Z" transform="translate(-9.77 -3.48)"></path><path class="cls-1" d="M136.33,42.43c17.3-11.93,31.68-9.27,38.74-2.21,8.57,8.81,3.56,20.29,6.49,68.38a1.45,1.45,0,0,1-.4,1.09,1.51,1.51,0,0,1-1.08.45c-2.57-.07-7.62-.19-10.13-.19-4.21,0-12.4.35-15.78.5a1.45,1.45,0,0,1-1.51-1.45c.34-47.22.68-53.56-7.89-53.56-2.91,0-5.54,1.24-8,2.49.14,24.42.49,31.34,1.28,51a1.17,1.17,0,0,1-.31.84,1.24,1.24,0,0,1-.83.36l-27.17.35a1.09,1.09,0,0,1-.83-.34,1.13,1.13,0,0,1-.34-.82c.63-70.49.12-85.06-2-99.81a1.26,1.26,0,0,1,1.15-1.47c12-1.8,13.19-2,27.16-4.6a1.46,1.46,0,0,1,1.5,1.57Z" transform="translate(-9.77 -3.48)"></path><path class="cls-1" d="M228.75,102.62c-5,3.72-15,8.86-22.86,8.86-12.4,0-20.31-9-20.31-22.65,0-21,24.5-27,42.2-29.38.28-3.46.42-7.19-8.57-7.19S202.91,55,195.35,58a1.42,1.42,0,0,1-1.38-.16,1.46,1.46,0,0,1-.6-1.25l.8-16.12a1.47,1.47,0,0,1,1-1.31c15.8-4.78,42.71-8.53,54.17,1.91,6.95,6.34,6.61,14.39,6.36,28-.35,19.58-.07,25,1.08,39.59a1.46,1.46,0,0,1-.38,1.08,1.43,1.43,0,0,1-1,.47l-25.14.38a1.5,1.5,0,0,1-1-.41,1.45,1.45,0,0,1-.43-1Zm-.41-28.09c-6.5.56-16.33,1.25-16.33,9.69,0,7.29,8.05,9.74,16.33,4.57Z" transform="translate(-9.77 -3.48)"></path><path class="cls-1" d="M273.39,75.11a1.46,1.46,0,0,1-1.48-1.38c-1.57-36.85-2-40.88-4.07-63.88A1.46,1.46,0,0,1,269,8.29l27-4.55a1.44,1.44,0,0,1,1.22.36,1.42,1.42,0,0,1,.45,1.2c-1.57,16.55-3.34,47.77-3.67,68a1.44,1.44,0,0,1-1.41,1.42Z" transform="translate(-9.77 -3.48)"></path><path class="cls-1" d="M295.79,108.71a1.43,1.43,0,0,1-.42,1.08,1.46,1.46,0,0,1-1.08.42,200.21,200.21,0,0,0-24.18.22,1.41,1.41,0,0,1-1.54-1.46c.14-7.8.17-16.13.1-21a1.41,1.41,0,0,1,.46-1.08,1.43,1.43,0,0,1,1.1-.39,174.31,174.31,0,0,0,24.23-.22,1.44,1.44,0,0,1,1.14.37,1.47,1.47,0,0,1,.46,1.12C295.71,95.9,295.58,102.88,295.79,108.71Z" transform="translate(-9.77 -3.48)"></path></svg>